<?xml version="1.0" standalone="no"?>
<!DOCTYPE svg PUBLIC "-//W3C//DTD SVG 20010904//EN"
 "http://www.w3.org/TR/2001/REC-SVG-20010904/DTD/svg10.dtd">
<svg version="1.0" xmlns="http://www.w3.org/2000/svg"
 width="200.000000pt" height="108.000000pt" viewBox="0 0 200.000000 108.000000"
 preserveAspectRatio="xMidYMid meet">
<metadata>
Created by potrace 1.16, written by Peter Selinger 2001-2019
</metadata>
<g transform="translate(0.000000,108.000000) scale(0.100000,-0.100000)"
fill="#000000" stroke="none">
<path d="M220 991 c-77 -24 -136 -79 -164 -152 -14 -38 -16 -88 -14 -389 l3
-345 140 0 140 0 3 290 c1 160 4 296 7 304 15 39 20 -27 25 -297 l5 -297 140
0 140 0 3 290 c1 160 5 297 10 305 4 8 9 -122 12 -290 l5 -305 145 0 145 0 0
350 c0 347 0 350 -24 402 -28 63 -85 118 -138 132 -98 27 -212 4 -276 -57
l-27 -26 -33 32 c-17 17 -49 38 -69 46 -39 17 -134 20 -178 7z"/>
<path d="M1115 968 c-3 -7 -4 -204 -3 -438 l3 -425 225 -2 c248 -3 299 3 388
48 156 77 243 244 229 439 -11 172 -105 294 -274 358 -65 25 -78 26 -315 30
-201 3 -249 1 -253 -10z m449 -286 c64 -22 89 -56 94 -129 7 -103 -53 -160
-177 -170 l-71 -6 0 162 0 161 53 0 c28 -1 74 -9 101 -18z"/>
</g>
</svg>
