<?xml version="1.0" standalone="no"?>
<!DOCTYPE svg PUBLIC "-//W3C//DTD SVG 20010904//EN"
 "http://www.w3.org/TR/2001/REC-SVG-20010904/DTD/svg10.dtd">
<svg version="1.0" xmlns="http://www.w3.org/2000/svg"
 width="192.000000pt" height="192.000000pt" viewBox="0 0 192.000000 192.000000"
 preserveAspectRatio="xMidYMid meet">

<g transform="translate(0.000000,192.000000) scale(0.100000,-0.100000)"
fill="#000000" stroke="none">
<path d="M775 1904 c-6 -8 -35 -22 -65 -29 -30 -7 -78 -26 -106 -42 -28 -15
-66 -37 -85 -47 -41 -23 -139 -105 -192 -163 -77 -84 -175 -254 -192 -334 -4
-19 -15 -47 -25 -64 -40 -69 -54 -136 -54 -265 -1 -130 11 -184 56 -272 29
-55 43 -64 73 -44 14 10 30 28 35 42 6 14 10 112 10 219 0 188 -1 194 -23 222
-33 39 -43 83 -20 84 60 3 110 -5 130 -21 26 -20 71 -14 103 15 26 23 91 19
144 -11 25 -14 46 -29 46 -33 0 -4 11 -14 25 -21 22 -12 27 -10 61 20 74 64
140 74 220 31 80 -43 104 -121 104 -337 0 -150 3 -164 49 -216 13 -14 20 -31
17 -37 -9 -14 -205 -15 -226 -1 -12 8 -9 15 19 44 l34 35 -1 179 c0 98 -5 197
-11 219 -25 92 -125 96 -188 8 l-28 -40 0 -188 0 -189 28 -22 c58 -46 30 -63
-100 -56 -81 4 -98 8 -101 22 -2 9 6 21 17 27 30 17 44 75 45 201 3 185 -18
281 -65 304 -29 14 -34 14 -77 -7 -39 -18 -52 -32 -74 -77 -25 -52 -27 -63
-27 -203 -1 -158 6 -190 50 -221 13 -9 19 -21 16 -30 -5 -13 -25 -16 -104 -16
-54 0 -104 -4 -112 -9 -17 -11 -7 -63 23 -111 62 -102 78 -125 122 -171 46
-50 144 -136 189 -164 43 -28 157 -85 169 -85 32 0 86 -23 86 -35 0 -22 395
-22 403 -1 3 8 25 20 49 26 40 10 134 50 168 71 103 65 121 79 195 154 103
102 195 247 195 307 0 15 7 31 16 36 9 5 27 49 42 103 23 83 26 113 26 249 0
129 -4 168 -22 234 -49 177 -130 328 -237 443 -95 103 -273 216 -383 243 -24
6 -46 18 -49 26 -8 22 -384 21 -398 -2z m899 -430 c14 -5 16 -50 16 -395 l0
-389 37 -41 c28 -31 34 -42 23 -49 -7 -4 -91 -8 -186 -8 l-172 0 -54 53 c-68
67 -98 146 -98 251 0 129 67 267 140 289 14 4 34 14 45 21 26 18 57 18 99 -2
57 -28 66 -17 66 76 0 87 -14 127 -52 154 -18 13 -19 18 -8 31 13 15 111 22
144 9z"/>
<path d="M1442 1137 c-58 -27 -81 -79 -97 -217 -13 -117 50 -271 117 -285 44
-10 65 3 98 59 29 52 30 56 30 192 0 119 -3 146 -21 190 -16 37 -30 56 -53 67
-29 13 -35 13 -74 -6z"/>
</g>
</svg>
